<?xml version="1.0" encoding="UTF-8" standalone="no"?>
<svg
   version="1.1"
   width="1024"
   height="1024"
   id="svg18"
   sodipodi:docname="blobify-light.svg"
   inkscape:version="1.3 (0e150ed6c4, 2023-07-21)"
   xmlns:inkscape="http://www.inkscape.org/namespaces/inkscape"
   xmlns:sodipodi="http://sodipodi.sourceforge.net/DTD/sodipodi-0.dtd"
   xmlns="http://www.w3.org/2000/svg"
   xmlns:svg="http://www.w3.org/2000/svg">
  <defs
     id="defs18" />
  <sodipodi:namedview
     id="namedview18"
     pagecolor="#000000"
     bordercolor="#000000"
     borderopacity="0"
     inkscape:showpageshadow="false"
     inkscape:pageopacity="0.0"
     inkscape:pagecheckerboard="true"
     inkscape:deskcolor="#e1e1e1"
     showborder="false"
     borderlayer="false"
     shape-rendering="crispEdges"
     inkscape:clip-to-page="false"
     inkscape:zoom="0.4440918"
     inkscape:cx="186.8983"
     inkscape:cy="446.97966"
     inkscape:window-width="3840"
     inkscape:window-height="2054"
     inkscape:window-x="2549"
     inkscape:window-y="-11"
     inkscape:window-maximized="1"
     inkscape:current-layer="svg18" />
  <path
     id="path1"
     d="M 229.75 74.619141 C 202.23639 74.526172 177.81231 78.877226 153 91 L 149.47266 92.71875 C 113.97439 110.96271 87.219575 142.86695 74.742188 180.59766 C 72.770278 186.97073 71.306214 193.46191 70 200 L 69.462891 202.5918 C 68.846061 207.13051 68.857528 211.58877 68.863281 216.16406 L 68.855469 219.27344 C 68.84778 222.72762 68.846301 226.18057 68.845703 229.63477 C 68.841688 232.13 68.836858 234.62586 68.832031 237.12109 C 68.821319 243.27047 68.816488 249.41898 68.8125 255.56836 C 68.807486 262.93447 68.795895 270.30187 68.785156 277.66797 C 68.758318 296.32285 68.743923 314.97792 68.730469 333.63281 C 68.726797 338.68873 68.722828 343.74486 68.71875 348.80078 C 68.693482 380.2066 68.670623 411.61175 68.658203 443.01758 C 68.655282 450.29338 68.653407 457.5699 68.650391 464.8457 L 68.648438 467.58398 C 68.636295 496.85824 68.606187 526.13202 68.564453 555.40625 C 68.521598 585.52202 68.495459 615.63811 68.490234 645.75391 C 68.489494 650.01417 68.487335 654.27489 68.486328 658.53516 L 68.486328 661.07617 C 68.482824 674.52933 68.46201 687.98242 68.435547 701.43555 C 68.409306 714.9808 68.401176 728.52503 68.412109 742.07031 C 68.418054 750.10139 68.410882 758.13303 68.382812 766.16406 C 68.363335 772.1866 68.371791 778.20791 68.388672 784.23047 C 68.391453 786.64795 68.384264 789.06694 68.369141 791.48438 C 68.19881 820.51437 74.310335 846.48807 88 872 L 89.609375 875.10547 C 107.18324 907.33872 139.52849 930.80314 174 942 C 186.78494 945.67501 199.18214 948.15708 212.49219 948.12891 L 215.67188 948.13477 C 219.19925 948.13943 222.72653 948.13524 226.25391 948.13281 C 228.80393 948.13468 231.35427 948.13793 233.9043 948.14062 C 239.45458 948.14547 245.00441 948.14751 250.55469 948.14648 C 258.80844 948.14496 267.06266 948.14906 275.31641 948.1543 C 290.91611 948.16397 306.51553 948.1674 322.11523 948.16797 C 334.163 948.16843 346.21005 948.16869 358.25781 948.17188 C 361.72538 948.17277 365.19455 948.17489 368.66211 948.17578 L 371.27344 948.17578 C 395.52359 948.18194 419.77328 948.18599 444.02344 948.18555 L 446.79492 948.18555 C 451.4295 948.18546 456.06464 948.18565 460.69922 948.18555 L 463.48828 948.18555 C 465.34965 948.18551 467.2109 948.18559 469.07227 948.18555 C 498.0277 948.18493 526.98207 948.1914 555.9375 948.20508 C 588.46802 948.22044 620.99877 948.22944 653.5293 948.22852 C 656.99875 948.22844 660.47 948.22855 663.93945 948.22852 L 666.52734 948.22852 C 680.27011 948.22848 694.0131 948.23553 707.75586 948.24414 C 721.57074 948.25262 735.38434 948.25267 749.19922 948.24609 C 757.4038 948.2424 765.60987 948.24409 773.81445 948.25391 C 779.94478 948.26062 786.07475 948.25781 792.20508 948.25 C 794.6822 948.24846 797.1596 948.25029 799.63672 948.25586 C 816.92417 948.38494 816.92372 948.38452 834 946 L 836.63672 945.43164 C 838.8993 944.92246 841.13554 944.35246 843.375 943.75 L 845.82227 943.09375 C 870.90872 936.13546 892.37857 922.96805 911 905 L 913.17188 902.98438 C 923.77811 892.88724 931.30132 880.90176 938 868 L 938.95703 866.19727 C 943.06121 858.38553 946.07585 850.33661 948.75 841.9375 L 949.60352 839.34961 C 955.17636 820.97254 955.43946 801.72073 955.38086 782.69141 C 955.38432 780.20965 955.38858 777.72784 955.39453 775.24609 C 955.40438 769.89132 955.40615 764.5364 955.39844 759.18164 C 955.387 751.21867 955.39322 743.25594 955.40234 735.29297 C 955.41808 721.06549 955.41689 706.83686 955.4082 692.60938 C 955.40064 680.16129 955.39877 667.71371 955.40234 655.26562 L 955.40234 652.75781 C 955.40328 649.39689 955.40331 646.03475 955.4043 642.67383 C 955.41346 611.19389 955.4068 579.71431 955.39062 548.23438 C 955.37638 520.29686 955.37629 492.35939 955.39062 464.42188 C 955.4067 432.98953 955.41356 401.55735 955.4043 370.125 C 955.40333 366.77198 955.40327 363.41942 955.40234 360.06641 L 955.40039 357.56445 C 955.39698 345.12401 955.40061 332.68263 955.4082 320.24219 C 955.41679 306.09413 955.41468 291.94688 955.39844 277.79883 C 955.38965 269.89049 955.38903 261.98256 955.40039 254.07422 C 955.40795 248.15793 955.40095 242.24049 955.38672 236.32422 C 955.38338 233.93967 955.38527 231.55642 955.39258 229.17188 C 955.42952 216.10918 954.89115 203.76415 952 191 L 951.41797 188.4043 C 945.92506 165.85347 934.51938 145.88151 920 128 L 918.31641 125.88281 C 914.63902 121.39819 910.42735 117.7271 906 114 L 903.45312 111.72266 C 876.70169 88.333624 840.94818 74.80277 805.45117 74.869141 L 802.32617 74.863281 C 798.87222 74.857629 795.41685 74.857954 791.96289 74.859375 C 789.46079 74.85679 786.95913 74.853015 784.45703 74.849609 C 778.30252 74.842393 772.14866 74.840401 765.99414 74.839844 C 758.61976 74.838928 751.24547 74.83293 743.87109 74.826172 C 726.04894 74.810129 708.22646 74.803615 690.4043 74.798828 C 681.96877 74.79649 673.53319 74.792817 665.09766 74.789062 C 636.20696 74.776228 607.31648 74.765168 578.42578 74.761719 L 572.98633 74.761719 L 567.53516 74.761719 C 563.8898 74.761276 560.24497 74.760216 556.59961 74.759766 L 553.85938 74.759766 C 524.56325 74.756136 495.26878 74.74011 465.97266 74.716797 C 434.97998 74.692178 403.98682 74.678929 372.99414 74.677734 C 369.58921 74.677563 366.18423 74.676029 362.7793 74.675781 L 360.23828 74.675781 C 346.77018 74.674633 333.30208 74.664953 319.83398 74.650391 C 306.28585 74.635995 292.73759 74.6326 279.18945 74.640625 C 271.15051 74.645067 263.1112 74.640892 255.07227 74.625 C 249.05466 74.614041 243.03714 74.61807 237.01953 74.628906 C 234.5962 74.630858 232.17332 74.627888 229.75 74.619141 z "
     transform="translate(0,0)"
     style="stroke:#60439f;stroke-opacity:1;fill:#6246a1;fill-opacity:1" />
  <path
     d="M0 0 C1.27032123 -0.00382555 2.54064246 -0.00765109 3.84945828 -0.01159257 C7.36411862 -0.02185989 10.8786768 -0.019694 14.39334548 -0.01541197 C18.18824142 -0.01294247 21.98311292 -0.02196167 25.77799988 -0.02944946 C33.20799285 -0.04219194 40.63794967 -0.04399074 48.06795173 -0.0416492 C54.10748036 -0.03986549 60.14699803 -0.04161682 66.18652534 -0.04587364 C67.04640448 -0.04646883 67.90628361 -0.04706402 68.79221969 -0.04767724 C70.5391101 -0.04888901 72.28600051 -0.05010314 74.03289092 -0.05131962 C90.41110717 -0.06219328 106.78930282 -0.06003341 123.16752023 -0.05393478 C138.14787171 -0.04876496 153.12815817 -0.06002308 168.10849678 -0.07903299 C183.49501202 -0.0984085 198.8814965 -0.10666795 214.26802403 -0.10290974 C222.90452881 -0.10099737 231.54097824 -0.10348889 240.17747307 -0.11762428 C247.52923649 -0.12953533 254.88091049 -0.13094603 262.23267513 -0.11883412 C265.98254142 -0.11294367 269.73224412 -0.11185052 273.48209953 -0.12383652 C277.54939404 -0.13668599 281.61629889 -0.12623497 285.68359375 -0.11352539 C286.8656011 -0.12089968 288.04760845 -0.12827396 289.26543421 -0.13587171 C297.47491866 -0.08183989 304.3606752 0.7623613 310.5927887 6.63569641 C311.25149963 7.24929016 311.91021057 7.86288391 312.58888245 8.49507141 C313.48800354 9.36905579 313.48800354 9.36905579 314.4052887 10.26069641 C315.3127887 11.12694641 316.2202887 11.99319641 317.1552887 12.88569641 C319.3916348 15.24628397 321.37497222 17.72280081 323.4052887 20.26069641 C325.0596529 21.94145767 326.7264937 23.60463525 328.4052887 25.26069641 C329.58635239 26.43441298 330.76708125 27.60846652 331.94755554 28.78277588 C333.32682674 30.15297084 334.70613186 31.52313164 336.08546448 32.89326477 C343.78695917 40.54571352 351.48078367 48.20582783 359.17032051 55.87029171 C363.81907823 60.5033582 368.47061251 65.1335662 373.12843323 69.75752258 C377.64058568 74.23708709 382.14537625 78.72393439 386.64515305 83.21592903 C388.35933206 84.9245698 390.07614719 86.63057016 391.79564285 88.3338604 C394.19876461 90.71521182 396.59234013 93.10578065 398.98390198 95.49873352 C400.04997681 96.54862961 400.04997681 96.54862961 401.1375885 97.61973572 C401.79079071 98.27706192 402.44399292 98.93438812 403.11698914 99.6116333 C403.68292849 100.17480727 404.24886784 100.73798124 404.83195686 101.31822109 C408.97018638 106.42738404 409.84212125 111.13283328 409.78281212 117.55106163 C409.78717244 118.37444916 409.79153276 119.19783669 409.79602522 120.04617536 C409.80699246 122.81123925 409.79655256 125.57580565 409.78623962 128.34086609 C409.78969561 130.34087366 409.79445977 132.34087932 409.80042136 134.34088099 C409.81296929 139.84169495 409.80674367 145.34235319 409.7974627 150.84316778 C409.790688 156.77375193 409.80114566 162.7043089 409.80940247 168.6348877 C409.82198701 179.58347469 409.82087447 190.53200807 409.81266806 201.48059793 C409.80512337 211.59597895 409.80315035 221.71134174 409.80673599 231.82672501 C409.80707973 232.83293213 409.80707973 232.83293213 409.8074304 233.85946668 C409.80836441 236.58245833 409.80931961 239.30544996 409.81030969 242.02844159 C409.81948882 267.5779359 409.81116332 293.12739853 409.795019 318.67688795 C409.78078521 341.375414 409.78205309 364.07388955 409.79640198 386.77241516 C409.81246763 412.27196039 409.8188346 437.77147762 409.80956519 463.27102721 C409.80860303 465.98969689 409.80766451 468.70836659 409.80673599 471.42703629 C409.80638014 472.43115068 409.80638014 472.43115068 409.80601711 473.45555022 C409.80260509 483.56311614 409.80659484 493.67066182 409.81417465 503.77822495 C409.82258427 515.27287724 409.82032092 526.76746807 409.80433242 538.26211332 C409.79644204 544.1283524 409.79337122 549.99448896 409.80327988 555.86072731 C409.81221144 561.22967206 409.80731912 566.59841912 409.79134722 571.96734591 C409.78799288 573.91076646 409.78970811 575.85420368 409.79697458 577.79761355 C409.80609128 580.43819643 409.79674618 583.07810141 409.78281212 585.71864891 C409.79334737 586.85171343 409.79334737 586.85171343 409.80409545 588.00766814 C409.74132945 593.95494054 408.59607407 599.51293171 404.79200745 604.28413391 C403.95089417 604.95315735 403.95089417 604.95315735 403.0927887 605.63569641 C402.53978088 606.09718079 401.98677307 606.55866516 401.41700745 607.03413391 C396.57623975 609.98559227 391.9144701 610.51123803 386.33307838 610.515172 C385.641384 610.51837848 384.94968962 610.52158496 384.2370348 610.5248886 C381.92003864 610.53318775 379.60330103 610.52726469 377.28630066 610.52139282 C375.60802839 610.52441355 373.9297575 610.52830263 372.25148904 610.53298539 C367.64002582 610.54328433 363.02864017 610.54107874 358.41717052 610.5368048 C353.4436528 610.53434101 348.47015392 610.54334741 343.49664307 610.55084229 C333.7530801 610.56360103 324.00954468 610.56538151 314.26597477 610.56304202 C306.34713227 610.56126 298.42829814 610.56300601 290.50945663 610.56726646 C288.81978268 610.56815925 288.81978268 610.56815925 287.0959739 610.56907007 C284.80768995 610.5702818 282.51940601 610.57149594 280.23112206 610.57271244 C258.76446342 610.58359253 237.29782048 610.58142328 215.83116095 610.5753276 C196.18838648 610.57015813 176.54566161 610.58141386 156.90289696 610.60042582 C136.7387224 610.61979298 116.57457132 610.62806218 96.4103874 610.62430257 C85.0877344 610.6223888 73.7651236 610.6248951 62.44247818 610.63901711 C52.80333486 610.65091759 43.16425974 610.65235077 33.5251155 610.64022694 C28.60669121 610.63432888 23.68839172 610.63326444 18.76997566 610.64522934 C14.26702058 610.6560563 9.764295 610.65302281 5.2613508 610.63896766 C3.63286573 610.63631193 2.00436286 610.63871468 0.37589522 610.64670352 C-17.33916151 610.72757288 -17.33916151 610.72757288 -23.6181488 605.61225891 C-24.06416443 605.04249329 -24.51018005 604.47272766 -24.9697113 603.88569641 C-25.43119568 603.32108704 -25.89268005 602.75647766 -26.3681488 602.17475891 C-29.85711022 596.73020129 -29.88020259 591.89251592 -29.85198021 585.60972881 C-29.85548628 584.62709963 -29.85899236 583.64447044 -29.86260468 582.63206461 C-29.8719535 579.31939204 -29.86698635 576.00689392 -29.86213684 572.69421387 C-29.86587134 570.30321446 -29.87047205 567.91221627 -29.87586749 565.52122003 C-29.88557168 560.31233636 -29.88900913 555.10348681 -29.88695526 549.8945961 C-29.8839085 542.14872532 -29.89222203 534.40289576 -29.90270451 526.65703298 C-29.92206078 512.01864709 -29.92767334 497.38027518 -29.92881863 482.741878 C-29.9297372 471.4386677 -29.93385122 460.13546291 -29.94021988 448.83225441 C-29.94201493 445.58033715 -29.94379455 442.32841989 -29.94556963 439.07650262 C-29.94601173 438.26809936 -29.94645383 437.45969609 -29.94690932 436.62679576 C-29.95922019 413.88343386 -29.9671102 391.14007387 -29.96622276 368.39670849 C-29.96619161 367.53898137 -29.96616045 366.68125424 -29.96612835 365.79753539 C-29.96596213 361.45007464 -29.96576405 357.10261389 -29.96555893 352.75515314 C-29.96551904 351.89170941 -29.96547915 351.02826569 -29.96543805 350.138657 C-29.96535718 348.39256289 -29.96527358 346.64646879 -29.96518727 344.90037469 C-29.96396162 317.73099113 -29.97897641 290.56165748 -30.0063324 263.39228821 C-30.0370436 232.87790892 -30.05426548 202.36356242 -30.05240595 171.84916669 C-30.05225669 168.59630636 -30.05215928 165.34344604 -30.05209732 162.09058571 C-30.05207401 161.28963032 -30.0520507 160.48867492 -30.05202669 159.66344815 C-30.0519651 146.76570916 -30.06474488 133.86801344 -30.08196185 120.97028731 C-30.0989033 108.01105956 -30.10090385 95.05189522 -30.08774321 82.09266254 C-30.08034412 74.39131968 -30.08404046 66.69016928 -30.10362789 58.98884675 C-30.11701096 53.24192558 -30.1095431 47.49518363 -30.09388144 41.7482752 C-30.09079518 39.42057104 -30.09450462 37.09284618 -30.10560159 34.76516642 C-30.11966738 31.6061623 -30.10917905 28.44815708 -30.09248924 25.28918743 C-30.1024256 24.38111242 -30.11236196 23.47303741 -30.12259942 22.53744498 C-30.04964651 16.02594211 -28.62747325 10.71334305 -24.25363817 5.73395224 C-17.27621175 -0.65940378 -8.87575965 -0.0283257 0 0 Z "
     fill="#FDFDFE"
     transform="translate(455.59471130371094,206.7393035888672)"
     id="path3" />
  <path
     d="M0 0 C1.59586441 -0.01919243 1.59586441 -0.01919243 3.22396851 -0.03877258 C4.38096756 -0.03741302 5.53796661 -0.03605347 6.73002625 -0.03465271 C7.9566095 -0.04472855 9.18319275 -0.05480438 10.44694519 -0.06518555 C13.8046879 -0.08878021 17.16187402 -0.09871687 20.51966119 -0.10063291 C22.62017897 -0.10276871 24.72063883 -0.10917977 26.8211422 -0.11712456 C34.15718144 -0.14486323 41.49305739 -0.15713218 48.82914734 -0.1547699 C55.65435731 -0.15296877 62.47885501 -0.18460399 69.3038848 -0.23200089 C75.17415962 -0.27130633 81.0442024 -0.28731829 86.9146077 -0.28540367 C90.41607772 -0.28464088 93.91691467 -0.29307124 97.41825294 -0.32493782 C101.32714441 -0.35954354 105.23506933 -0.34569362 109.14408875 -0.32762146 C110.29501511 -0.34447998 111.44594147 -0.3613385 112.63174438 -0.37870789 C120.10409418 -0.29102533 124.25817304 1.18704242 129.63114929 6.40113831 C130.52962585 7.22356018 131.42810242 8.04598206 132.35380554 8.89332581 C133.12595398 9.67965393 133.89810242 10.46598206 134.69364929 11.27613831 C135.46837585 12.05731018 136.24310242 12.83848206 137.04130554 13.64332581 C139.06121549 15.79424047 140.99678554 17.97100334 142.92021179 20.20582581 C147.3752399 25.33432345 152.23716271 30.0251874 157.10966492 34.75270081 C157.79351257 35.42559143 158.47736023 36.09848206 159.18193054 36.79176331 C159.79721619 37.39021057 160.41250183 37.98865784 161.0464325 38.60523987 C164.3883237 42.3924763 164.88231123 45.44337867 164.8918457 50.44697571 C164.89893051 51.68620789 164.90601532 52.92544006 164.91331482 54.20222473 C164.91102103 55.5728916 164.90851133 56.94355812 164.9058075 58.31422424 C164.91015551 59.75994632 164.91533896 61.2056661 164.92129517 62.65138245 C164.93469025 66.57720332 164.93526302 70.50292793 164.93273187 74.4287672 C164.93166199 77.708855 164.93654622 80.98892334 164.94133729 84.26900697 C164.95243533 92.01130773 164.95286894 99.75355999 164.94682312 107.49586487 C164.94078915 115.47337296 164.95307894 123.45070441 164.97439319 131.42818236 C164.99203349 138.28354443 164.99800652 145.13885041 164.99475545 151.99423432 C164.99294551 156.08572581 164.99554933 160.17709144 165.00946999 164.26856232 C165.02208245 168.11981315 165.02007213 171.97078992 165.0070591 175.82203674 C165.00470077 177.23128097 165.00740126 178.64054467 165.01568222 180.04976654 C165.10594115 196.61128996 165.10594115 196.61128996 160.2146349 201.94608688 C155.68815078 205.92677473 152.23649162 206.52638367 146.38839722 206.54830933 C145.08033615 206.55546463 143.77227509 206.56261993 142.42457581 206.56999207 C140.9715426 206.5728323 139.51850913 206.57554403 138.06547546 206.57814026 C136.53784022 206.58440555 135.01020651 206.59105241 133.48257446 206.59805298 C128.46309977 206.61908592 123.4436248 206.62945383 118.42411804 206.63941956 C116.69599708 206.64346723 114.96787627 206.64758416 113.23975563 206.65176964 C105.12179393 206.67081869 97.00384132 206.68505099 88.88586158 206.69338161 C79.51481115 206.70315696 70.14399675 206.72948538 60.77302951 206.7698825 C53.52962105 206.8000367 46.28628028 206.81484977 39.04281026 206.81816262 C34.71656626 206.82051369 30.39057449 206.8294815 26.06439781 206.85462379 C21.99398896 206.87789783 17.92399855 206.88214061 13.85354042 206.87186241 C12.36120334 206.87136679 10.86884571 206.87769505 9.37657166 206.89141846 C7.33607523 206.9091308 5.29539721 206.89964809 3.25485229 206.8888855 C1.54339665 206.89246803 1.54339665 206.89246803 -0.20263386 206.89612293 C-5.47726825 206.07152277 -8.52071921 203.52433948 -11.68135071 199.33863831 C-14.2836985 194.80862548 -14.51735544 191.18178811 -14.51602173 186.09539795 C-14.51969842 185.34569444 -14.5233751 184.59599092 -14.52716321 183.82356912 C-14.53820201 181.30408985 -14.5420442 178.78465182 -14.54585266 176.26515198 C-14.55211709 174.46165841 -14.55876388 172.65816615 -14.56576538 170.85467529 C-14.58317522 165.94965232 -14.59372682 161.0446391 -14.60197091 156.13959289 C-14.60712047 153.07594302 -14.61319618 150.01229618 -14.61948204 146.94864845 C-14.63853297 137.36556598 -14.65276505 127.78249122 -14.66109401 118.19939345 C-14.670871 107.13266413 -14.69720303 96.06613457 -14.7375949 84.99947566 C-14.76773641 76.4482227 -14.78256096 67.89702708 -14.78587502 59.34572202 C-14.78822748 54.23701545 -14.79721356 49.12852232 -14.8223362 44.01987267 C-14.84558795 39.21406746 -14.84986182 34.40861669 -14.83957481 29.60276985 C-14.83907866 27.83952532 -14.84542251 26.07626351 -14.85913086 24.3130722 C-14.87681028 21.90423241 -14.869764 19.4966701 -14.8565979 17.08782959 C-14.86756715 16.39141851 -14.87853639 15.69500743 -14.88983804 14.97749299 C-14.82433721 10.00787885 -13.55358869 7.17909033 -10.36885071 3.40113831 C-6.87612025 0.7250376 -4.36140849 0.02379394 0 0 Z "
     fill="#FEFEFE"
     transform="translate(236.3688507080078,597.5988616943359)"
     id="path4" />
  <path
     d="M0 0 C0.95480475 -0.01818377 1.90960951 -0.03636755 2.89334774 -0.05510235 C4.66357508 -0.09021933 6.43360052 -0.1408254 8.20279026 -0.21086597 C14.91624152 -0.31850217 18.79873425 1.53335495 24.01467896 5.84701538 C24.8354895 6.68184448 24.8354895 6.68184448 25.67288208 7.53353882 C26.60680786 8.47519897 26.60680786 8.47519897 27.55960083 9.43588257 C28.18479614 10.08170288 28.80999146 10.72752319 29.45413208 11.39291382 C30.07932739 12.02326538 30.70452271 12.65361694 31.34866333 13.30307007 C34.37491487 16.37944585 37.27819253 19.5162311 40.08987427 22.78964233 C44.33676687 27.66069392 48.90252051 32.18041793 53.50100708 36.71713257 C55.33317032 38.53666113 57.1651976 40.35632661 58.99710083 42.17611694 C61.86124654 45.01537203 64.7267885 47.85318139 67.59524536 50.68807983 C70.38160856 53.4424644 73.15997195 56.20485125 75.93850708 58.96713257 C76.79788879 59.81305466 77.65727051 60.65897675 78.54269409 61.53053284 C79.34072449 62.32518448 80.13875488 63.11983612 80.96096802 63.93856812 C81.66155334 64.63169601 82.36213867 65.32482391 83.08395386 66.03895569 C86.92908123 70.36473966 88.33313187 73.4972614 88.24710083 79.31869507 C88.23743286 80.47562866 88.22776489 81.63256226 88.21780396 82.82455444 C88.19266724 84.02273804 88.16753052 85.22092163 88.14163208 86.45541382 C88.12809692 87.67293335 88.11456177 88.89045288 88.10061646 90.14486694 C88.06532469 93.14466727 88.01601689 96.14356357 87.95413208 99.14291382 C86.84425682 99.14511366 86.84425682 99.14511366 85.71195984 99.14735794 C67.6917485 99.18444141 49.67173078 99.24347654 31.65167236 99.32681656 C22.93722228 99.36659255 14.22286232 99.39899234 5.5083313 99.41390991 C-2.08900967 99.42693392 -9.68615224 99.45391762 -17.28338146 99.49752688 C-21.304519 99.52012498 -25.32541198 99.5358255 -29.34661865 99.53479767 C-33.13557152 99.53405007 -36.92398414 99.55204034 -40.71279716 99.58408165 C-42.09943615 99.592564 -43.48613586 99.59434188 -44.87278938 99.58871651 C-54.30901945 99.55554997 -60.85492126 100.0450993 -67.85836792 106.89291382 C-72.53047483 113.83432981 -73.49143078 119.88924102 -73.47824097 128.04721069 C-73.48843262 129.00422882 -73.49862427 129.96124695 -73.50912476 130.94726562 C-73.53912693 134.0854589 -73.54850122 137.22334628 -73.55758667 140.36166382 C-73.57444281 142.54742436 -73.5925943 144.73317526 -73.61198425 146.91891479 C-73.65938865 152.65301502 -73.68925994 158.38707614 -73.71542358 164.12130737 C-73.7452773 169.98015053 -73.79179113 175.83885914 -73.83688354 181.69760132 C-73.92280795 193.17930163 -73.9902016 204.66102971 -74.04586792 216.14291382 C-79.91740023 216.24203071 -85.78844205 216.31449993 -91.66061401 216.36264038 C-93.6567941 216.38271551 -95.65291567 216.40998171 -97.64889526 216.44467163 C-100.52355412 216.49337039 -103.39743332 216.51592368 -106.27243042 216.53353882 C-107.60402695 216.56450653 -107.60402695 216.56450653 -108.96252441 216.59609985 C-114.47331469 216.59808094 -117.81179606 216.01428905 -122.04586792 212.14291382 C-125.51785195 207.02873774 -126.6292617 203.23075896 -126.54707336 197.01448059 C-126.55260776 196.22460741 -126.55814216 195.43473422 -126.56384426 194.62092549 C-126.577396 191.98917611 -126.56251191 189.35838415 -126.5475769 186.72665405 C-126.55136205 184.83389891 -126.5568637 182.94114654 -126.56394958 181.04840088 C-126.57789497 175.91829272 -126.56674118 170.78852028 -126.55023837 165.65843081 C-126.53637461 160.28672452 -126.54284939 154.91503744 -126.54637146 149.5433197 C-126.54907229 140.52413531 -126.53560802 131.5050841 -126.51242065 122.4859314 C-126.4858037 112.06065067 -126.48406688 101.63559249 -126.49580902 91.21028942 C-126.50658983 81.17707565 -126.50039785 71.14394232 -126.48625374 61.11073494 C-126.4804974 56.84252075 -126.48057384 52.57436549 -126.48531914 48.30615044 C-126.4900931 43.28033194 -126.47996976 38.25475701 -126.45836449 33.22898483 C-126.45280248 31.38512938 -126.45232594 29.5412505 -126.45731735 27.69739342 C-126.46327853 25.17944692 -126.45074943 22.66224304 -126.43354797 20.1443634 C-126.43955802 19.41566227 -126.44556806 18.68696113 -126.45176023 17.93617815 C-126.37484511 11.73986749 -124.60197109 7.88661128 -120.51695251 3.30912781 C-116.27960648 0.06520376 -111.64452153 0.43843937 -106.5085144 0.48348999 C-105.45872406 0.47300629 -104.40893372 0.46252258 -103.32733154 0.45172119 C-99.85690842 0.42293591 -96.38748318 0.42927537 -92.91696167 0.43588257 C-90.48718536 0.4227505 -88.05741992 0.40744168 -85.62767029 0.39006042 C-79.21924138 0.35013852 -72.81109592 0.34002042 -66.40255737 0.33602905 C-59.95349158 0.32678913 -53.50460148 0.28927565 -47.05563354 0.25424194 C-25.54191483 0.14586624 -25.54191483 0.14586624 -15.30911922 0.15971661 C-10.20297755 0.16508642 -5.10459866 0.1313985 0 0 Z "
     fill="#FEFEFE"
     transform="translate(281.0458679199219,484.8570861816406)"
     id="path5" />
  <path
     d="M0 0 C3.41960688 -0.05160324 6.8392837 -0.08756058 10.2591095 -0.12116623 C11.87564692 -0.14083259 13.49211639 -0.16749198 15.1084137 -0.20159531 C17.34276667 -0.24786781 19.57608943 -0.2690624 21.81083679 -0.28476334 C23.07492371 -0.30411942 24.33901062 -0.32347549 25.6414032 -0.34341812 C31.85446853 0.48322093 35.73653859 4.51456116 40.01786804 8.81777573 C40.91441101 9.71625229 41.81095398 10.61472885 42.73466492 11.54043198 C44.11428406 12.93842026 44.11428406 12.93842026 45.52177429 14.36465073 C46.4376532 15.28117416 47.3535321 16.1976976 48.29716492 17.14199448 C55.49610113 24.38744212 55.49610113 24.38744212 57.52388 26.89455795 C60.97365991 31.11709748 64.49162808 34.21812586 68.96513367 37.35293198 C77.80913764 43.99598534 86.15937288 51.11260402 88.36161804 62.44814682 C90.27620925 76.39075106 89.39570429 90.64817352 88.73222351 104.65523911 C88.48369673 110.46639818 88.37647743 116.28014381 88.25614929 122.09511948 C88.00111482 133.44166384 87.59333233 144.77685465 87.08427429 156.11465073 C83.06008149 152.72830217 79.15506833 149.30819702 75.46928406 145.54970932 C74.63474197 144.70218094 73.80019989 143.85465256 72.94036865 142.9814415 C72.06102158 142.08438492 71.1816745 141.18732834 70.27568054 140.26308823 C68.86131779 138.83206635 67.44694254 137.40105659 66.03185177 135.97075462 C62.57248171 132.47352728 59.11769162 128.97190566 55.67485046 125.45840073 C53.73325111 123.47750497 51.78632179 121.50214555 49.83328247 119.53252792 C48.0030426 117.68642257 46.18057269 115.83257145 44.36712646 113.96996689 C36.8022092 106.37317312 30.01545074 102.03894529 19.04122925 101.95643234 C18.0498999 101.94664352 17.05857056 101.93685471 16.03720093 101.92676926 C14.9611409 101.92101379 13.88508087 101.91525833 12.77641296 101.90932846 C11.63451508 101.89942886 10.49261719 101.88952927 9.31611633 101.87932968 C5.54484627 101.84776306 1.77356361 101.82297625 -1.99775696 101.79824448 C-4.61378302 101.77767078 -7.22980579 101.7566742 -9.8458252 101.73527145 C-16.02571996 101.68542411 -22.20564016 101.64045588 -28.38558453 101.59724909 C-35.42308157 101.54780855 -42.4605328 101.49291578 -49.49798548 101.4375695 C-63.97052215 101.32387168 -78.44310443 101.21700623 -92.91572571 101.11465073 C-93.00844703 89.48380102 -93.07950174 77.85303939 -93.1229744 66.22189522 C-93.14384019 60.82094254 -93.17213978 55.42024292 -93.21748352 50.01943588 C-93.26097669 44.80636358 -93.2848704 39.59353455 -93.29523468 34.3802948 C-93.30261977 32.39237896 -93.3170412 30.40447628 -93.33864594 28.41666412 C-93.36772589 25.62999175 -93.37167977 22.84432176 -93.36982727 20.05752182 C-93.38420837 19.23752701 -93.39858948 18.4175322 -93.41340637 17.57268906 C-93.36603648 10.97786321 -91.27346089 7.49855396 -86.60054016 2.77376938 C-83.18716672 0.66442751 -80.9590666 0.59770149 -76.95869446 0.56875229 C-76.27612579 0.55841461 -75.59355713 0.54807693 -74.89030457 0.53742599 C-72.62770484 0.50791382 -70.36600364 0.5064931 -68.10322571 0.50527573 C-66.49505495 0.49024095 -64.88689931 0.47350306 -63.27876282 0.45516586 C-59.0186248 0.41138388 -54.75869046 0.39152103 -50.49836731 0.37643051 C-46.31182935 0.35733513 -42.12554205 0.3150039 -37.93916321 0.27480698 C-30.45713542 0.20597535 -22.97543693 0.17247576 -15.49313354 0.1531105 C-10.32796147 0.13573169 -5.1645524 0.08133816 0 0 Z "
     fill="#FEFEFE"
     transform="translate(272.9157257080078,369.88534927368164)"
     id="path6" />
  <path
     d="M0 0 C1.45684346 -0.11010863 1.45684346 -0.11010863 2.9431181 -0.22244167 C15.70563082 -1.13107646 28.48821737 -1.62242391 41.27758789 -1.94091797 C42.50301174 -1.97341015 43.72843559 -2.00590233 44.9909935 -2.03937912 C98.55548872 -3.29372775 98.55548872 -3.29372775 117.86054993 14.11193848 C120.99983759 17.10940993 123.86508171 20.29734843 126.65258789 23.62158203 C127.32247805 24.41880802 127.32247805 24.41880802 128.00590134 25.23213959 C133.08691165 31.36840381 137.61051514 37.79880944 141.75674438 44.60177612 C143.80052502 47.93501796 145.9799099 51.1678283 148.17204285 54.40467834 C150.28272705 57.62010164 150.47033801 59.58495355 150.48725891 63.41995239 C150.49799187 65.0853582 150.49799187 65.0853582 150.50894165 66.78440857 C150.51163055 68.00829788 150.51431946 69.23218719 150.51708984 70.49316406 C150.52366104 71.77783066 150.53023224 73.06249725 150.53700256 74.38609314 C150.55805659 78.65468087 150.56840915 82.923269 150.57836914 87.19189453 C150.5824168 88.6621083 150.58653373 90.13232187 150.59071922 91.60253525 C150.60977726 98.5127408 150.62400455 105.42293564 150.63233119 112.33316243 C150.64209328 120.30283936 150.66838305 128.27223779 150.70883209 136.24181664 C150.7390358 142.40499068 150.75380426 148.56808511 150.75711221 154.73133171 C150.75945873 158.41045155 150.76836614 162.0892741 150.79357338 165.76831436 C150.82127876 169.87859726 150.81701002 173.98826235 150.81005859 178.09863281 C150.82927368 179.9162487 150.82927368 179.9162487 150.84887695 181.77058411 C150.80606317 188.72054279 150.11366983 193.28953767 146.34008789 199.18408203 C141.11831699 204.0328693 138.2089232 204.2948697 131.34008789 204.18408203 C131.33461945 203.21474731 131.33461945 203.21474731 131.32904053 202.22583008 C131.2871066 195.47668994 131.21768432 188.72822294 131.13256836 181.97949219 C131.10440913 179.46361028 131.08316961 176.94764073 131.0690918 174.43164062 C131.04759333 170.80699967 131.00090419 167.18340686 130.94946289 163.55908203 C130.94761993 161.882052 130.94761993 161.882052 130.94573975 160.17114258 C130.70363604 147.15046404 125.21563422 141.483601 116.10571289 132.62939453 C115.1014977 131.63774146 114.09831997 130.64503681 113.09613037 129.65133667 C110.47425039 127.05588556 107.84141983 124.47186599 105.20513916 121.89105225 C100.9696452 117.7423138 96.74803698 113.57954778 92.53252411 109.41051865 C91.05917752 107.95763741 89.5792166 106.51174962 88.09844971 105.06643677 C87.21042664 104.19147552 86.32240356 103.31651428 85.4074707 102.41503906 C84.62011536 101.64418976 83.83276001 100.87334045 83.02154541 100.07913208 C81.34008789 98.18408203 81.34008789 98.18408203 81.34008789 96.18408203 C80.74969727 95.91595703 80.15930664 95.64783203 79.55102539 95.37158203 C76.70994692 93.84563176 74.64466288 91.82822894 72.31665039 89.62158203 C67.39015132 86.03867362 61.9258347 85.88208564 56.03979492 85.86523438 C55.22937241 85.85518875 54.41894989 85.84514313 53.58396912 85.83479309 C50.92195301 85.80405686 48.26003704 85.7869527 45.59790039 85.77001953 C43.74558659 85.75130018 41.89328125 85.7317262 40.04098511 85.71133423 C35.17819209 85.66008806 30.31537144 85.62042215 25.45245361 85.58319092 C20.48524179 85.54310411 15.51814413 85.49203312 10.55102539 85.44189453 C0.81412651 85.34522424 -8.92283694 85.26079103 -18.65991211 85.18408203 C-18.75269462 75.6393702 -18.82371876 66.0948142 -18.8671608 56.54974937 C-18.8880135 52.11731381 -18.91628844 47.68518736 -18.96166992 43.25292969 C-19.00521088 38.97352699 -19.02906665 34.69442115 -19.03942108 30.414814 C-19.0467977 28.7841487 -19.0612027 27.15349919 -19.08283234 25.52296066 C-19.1119772 23.23435426 -19.11586367 20.94696599 -19.11401367 18.65820312 C-19.12289612 17.35692474 -19.13177856 16.05564636 -19.14093018 14.7149353 C-18.42790646 9.48107342 -16.04160312 6.66538933 -12.51365662 2.88308716 C-8.42607422 0.44950439 -4.68817365 0.29749257 0 0 Z "
     fill="#FEFEFE"
     transform="translate(243.659912109375,273.81591796875)"
     id="path7" />
  <path
     d="M0 0 C1.54573702 -0.01059839 1.54573702 -0.01059839 3.12270105 -0.02141088 C4.25838167 -0.0189958 5.3940623 -0.01658071 6.56415749 -0.01409245 C7.76784088 -0.01932912 8.97152427 -0.0245658 10.21168292 -0.02996117 C13.55878308 -0.04239663 16.90567344 -0.04580394 20.25278234 -0.04536426 C23.86024054 -0.04701002 27.46766025 -0.06007195 31.07509804 -0.07155704 C38.96549976 -0.09442421 46.85587462 -0.10232937 54.74630499 -0.10738349 C59.67131737 -0.11063826 64.59632192 -0.11715937 69.52132988 -0.12438488 C83.15245182 -0.14395238 96.78356648 -0.16035593 110.41470337 -0.16326141 C111.28728552 -0.16344898 112.15986766 -0.16363655 113.05889169 -0.16382981 C114.8278892 -0.16419606 116.59688672 -0.16455976 118.36588423 -0.16492092 C119.68311503 -0.16519514 119.68311503 -0.16519514 121.02695656 -0.16547489 C121.90617986 -0.16565544 122.78540316 -0.16583599 123.69126959 -0.16602201 C137.9432264 -0.16956493 152.19503222 -0.19659395 166.44693665 -0.23397278 C181.07281439 -0.27202609 195.69861715 -0.29141867 210.3245455 -0.29172093 C218.53908814 -0.29230614 226.75345065 -0.30083922 234.96794701 -0.32971859 C241.96164283 -0.35419268 248.95509283 -0.36154238 255.94881986 -0.34647106 C259.51815971 -0.33928589 263.08701375 -0.34022764 266.65629959 -0.36288166 C270.52350801 -0.3871918 274.39001795 -0.37288086 278.25727272 -0.35466862 C279.3884919 -0.36786858 280.51971108 -0.38106855 281.68520963 -0.39466852 C289.25194003 -0.31292587 289.25194003 -0.31292587 293.23247147 2.58974266 C296.66642627 7.66930065 295.89611611 13.39535482 295.03769875 19.26006222 C293.71588243 22.31372767 292.75482927 23.14673847 290.03769875 25.26006222 C286.6388371 26.16666842 283.44262589 26.38585991 279.93583012 26.38869667 C278.92512374 26.39192112 277.91441737 26.39514556 276.87308353 26.39846772 C275.2181329 26.39614482 275.2181329 26.39614482 273.52974892 26.39377499 C272.35223598 26.39604054 271.17472304 26.3983061 269.96152788 26.40064031 C266.69688326 26.40587541 263.43227327 26.40662522 260.16762578 26.40544593 C256.64544618 26.40524183 253.12327479 26.4107615 249.60109901 26.4155035 C242.70291504 26.42380757 235.80473961 26.4265582 228.90655106 26.42711588 C223.30124902 26.42759101 217.6959498 26.42964562 212.09064865 26.43281651 C196.20324244 26.44162125 180.31584298 26.44623599 164.4284343 26.44548603 C163.57205749 26.44544608 162.71568067 26.44540612 161.83335304 26.44536495 C160.54722259 26.44530363 160.54722259 26.44530363 159.23510969 26.44524107 C145.3286198 26.44483432 131.42215695 26.45441173 117.51567488 26.46850332 C103.2411787 26.48285393 88.96669572 26.48977428 74.69219214 26.48890954 C66.67618929 26.48857719 58.66021481 26.49134119 50.64421844 26.50208759 C43.82187916 26.51117515 36.99958111 26.51338214 30.1772384 26.50657817 C26.69524606 26.50330453 23.21333293 26.5032866 19.73134804 26.51193142 C15.96038191 26.5195969 12.18962621 26.51504275 8.41866493 26.50730038 C6.76036822 26.51501572 6.76036822 26.51501572 5.06857055 26.52288693 C4.06047193 26.51828814 3.0523733 26.51368934 2.01372623 26.50895119 C1.14307984 26.50916856 0.27243344 26.50938592 -0.62459618 26.50960988 C-3.19475976 26.23524751 -4.77814076 25.62473936 -6.96230125 24.26006222 C-9.95588988 20.42853908 -10.34707195 17.49522472 -10.27480125 12.69756222 C-10.27093407 11.58252316 -10.26706688 10.46748409 -10.2630825 9.31865597 C-9.97202505 6.35894183 -9.61594496 4.69904842 -7.96230125 2.26006222 C-4.6965364 0.08288565 -3.77906431 0.00826263 0 0 Z "
     fill="#6346A1"
     transform="translate(500.96230125427246,642.7399377822876)"
     id="path8" />
  <path
     d="M0 0 C1.52782322 -0.00874829 1.52782322 -0.00874829 3.08651155 -0.01767331 C4.76231754 -0.01200433 4.76231754 -0.01200433 6.47197819 -0.00622082 C7.66018179 -0.01004636 8.8483854 -0.01387191 10.07259518 -0.01781338 C13.3718389 -0.02635716 16.67086019 -0.02590577 19.97009766 -0.02163279 C23.52776877 -0.01916974 27.08541349 -0.02817446 30.64307499 -0.03567028 C37.61326185 -0.04843096 44.58341022 -0.05020928 51.5536068 -0.04787002 C57.21804249 -0.04608827 62.88246647 -0.04783343 68.54690075 -0.05209446 C69.3525453 -0.05268965 70.15818984 -0.05328484 70.98824786 -0.05389806 C72.62482007 -0.05510979 74.26139228 -0.05632392 75.89796448 -0.05754044 C91.25171083 -0.0684212 106.60543522 -0.06625092 121.95918281 -0.06015559 C136.01057361 -0.05498566 150.0618951 -0.06624294 164.11327218 -0.08525381 C178.5357778 -0.10461747 192.95825061 -0.11289082 207.38076931 -0.10913056 C215.48010861 -0.10721631 223.5793889 -0.10972781 231.67871761 -0.1238451 C238.57353494 -0.13574111 245.46825695 -0.13718385 252.36307555 -0.12505493 C255.88167274 -0.11915373 259.40009543 -0.11810083 262.91868114 -0.13005733 C266.73096755 -0.14286146 270.54298764 -0.13248117 274.35527897 -0.11974621 C275.47025224 -0.12712049 276.5852255 -0.13449478 277.73398584 -0.14209253 C287.17791349 -0.0754445 287.17791349 -0.0754445 290.9771204 3.25447559 C293.39848266 6.88651898 293.30641679 8.80591394 293.3521204 13.12947559 C293.38047977 14.34377247 293.40883915 15.55806934 293.4380579 16.80916309 C292.89915938 20.83720116 291.85519972 22.43873734 288.9771204 25.25447559 C286.03193983 26.23620245 284.13092258 26.38248096 281.06167126 26.38869667 C279.53160952 26.39538344 279.53160952 26.39538344 277.97063744 26.40220529 C276.84662966 26.40202093 275.72262188 26.40183656 274.56455326 26.40164661 C273.37312053 26.4053233 272.18168779 26.40899999 270.95415103 26.41278809 C267.64130872 26.42191683 264.32851596 26.42652502 261.01566577 26.4291774 C257.44502953 26.43308005 253.87440764 26.44265827 250.30378056 26.45139027 C241.67905691 26.47115356 233.0543321 26.48121973 224.42959148 26.49011806 C220.36973863 26.4945003 216.3098871 26.49986719 212.25003529 26.50510693 C198.75788296 26.52211742 185.26573146 26.53661293 171.77357006 26.54385567 C168.27224699 26.5457656 164.77092392 26.54768593 161.26960087 26.54964161 C159.96422368 26.55036722 159.96422368 26.55036722 158.63247524 26.55110749 C144.52604252 26.55941286 130.41969445 26.5847591 116.31329872 26.61722229 C101.83658902 26.65026668 87.3599224 26.66830196 72.88317478 26.67149991 C64.75249123 26.6736672 56.62193122 26.68244808 48.49128437 26.70796108 C41.56898464 26.72963217 34.64683846 26.73773622 27.72450866 26.7279943 C24.19168347 26.72343938 20.65917533 26.72540441 17.12639332 26.74475574 C13.29868099 26.76554193 9.47140906 26.75543513 5.64365482 26.74222279 C4.52410849 26.75319203 3.40456215 26.76416128 2.25109017 26.77546293 C-5.23536739 26.71280497 -5.23536739 26.71280497 -9.189538 24.41149139 C-12.16914879 20.90583399 -12.20630965 17.82856755 -12.2728796 13.37947559 C-12.31155148 11.83646778 -12.31155148 11.83646778 -12.3510046 10.26228809 C-11.97231692 6.79098435 -11.15126032 5.00603085 -9.0228796 2.25447559 C-5.95188718 0.33050311 -3.59231517 0.0035393 0 0 Z "
     fill="#6246A1"
     transform="translate(503.0228796005249,341.7455244064331)"
     id="path9" />
  <path
     d="M0 0 C1.20539224 -0.00865438 2.41078448 -0.01730876 3.65270376 -0.02622539 C6.99594499 -0.04408685 10.33715062 -0.03502011 13.68024707 -0.01451623 C17.2863462 0.00110899 20.89228653 -0.01780482 24.49836731 -0.03231812 C31.56145367 -0.05515559 38.62414455 -0.0456598 45.68722308 -0.02481725 C51.42698386 -0.00853954 57.16663664 -0.00433212 62.90641785 -0.00878334 C63.72302835 -0.00941402 64.53963885 -0.01004469 65.38099512 -0.01069448 C67.03987383 -0.01204052 68.6987525 -0.01342009 70.35763115 -0.01483283 C85.91652777 -0.02677261 101.47520747 -0.00269592 117.0340547 0.03418525 C130.38707849 0.06507867 143.73985251 0.06744965 157.09289551 0.04838562 C172.59571458 0.02627789 188.0983936 0.02012531 203.60121965 0.04070824 C205.25402862 0.0428712 206.9068376 0.0450203 208.55964661 0.04715538 C209.37288064 0.04822175 210.18611467 0.04928811 211.02399215 0.05038679 C216.75749093 0.05685888 222.4909177 0.05208757 228.22441101 0.04313087 C235.21078297 0.03259957 242.19686194 0.04008195 249.18317974 0.07058666 C252.74845276 0.0857246 256.31326314 0.09286751 259.87854958 0.07839584 C263.74133604 0.06299911 267.60333049 0.08626907 271.46606445 0.11352539 C272.59591939 0.1030539 273.72577434 0.09258241 274.88986731 0.08179361 C282.44169619 0.18148057 282.44169619 0.18148057 286.42696381 3.07066631 C288.81289658 6.61707229 288.90053508 9.00488736 288.85803223 13.25517273 C288.87092285 14.54423523 288.88381348 15.83329773 288.89709473 17.16142273 C288.03739242 21.81392933 287.06821968 22.97616603 283.23303223 25.75517273 C279.31342073 26.50430884 275.43957808 26.42503146 271.45933533 26.38336182 C270.25323752 26.3904562 269.04713971 26.39755059 267.80449349 26.40485996 C264.45954228 26.41942067 261.116006 26.41154243 257.77115834 26.39413702 C254.16305303 26.38077332 250.55505536 26.3961964 246.94696045 26.40795898 C239.88023855 26.42634696 232.81379298 26.41781592 225.74707966 26.39987076 C220.00493594 26.38585141 214.26286728 26.38195051 208.52070808 26.38531303 C207.70380886 26.38579048 206.88690963 26.38626792 206.04525589 26.38675983 C204.38581146 26.38778614 202.72636706 26.3888415 201.06692267 26.38992559 C186.39054773 26.39849485 171.71430632 26.38180976 157.03796387 26.35209656 C142.79116203 26.32325331 128.54455252 26.3161778 114.29772949 26.33158875 C98.78870878 26.34834202 83.27977939 26.35239447 67.7707563 26.33487839 C66.11768441 26.33303397 64.46461251 26.33119924 62.8115406 26.32937431 C61.99816586 26.32846222 61.18479112 26.32755013 60.34676866 26.3266104 C54.60980459 26.32099996 48.87288505 26.32431686 43.13592339 26.33091927 C36.1470008 26.3386431 29.15826768 26.33193418 22.16938334 26.30674423 C18.60226404 26.2942275 15.03544002 26.28812867 11.4683094 26.29928589 C7.60527157 26.31114071 3.7427457 26.29211101 -0.12025452 26.26983643 C-1.2530223 26.27807719 -2.38579008 26.28631796 -3.55288416 26.29480845 C-5.10160775 26.27823692 -5.10160775 26.27823692 -6.68161869 26.2613306 C-7.57352943 26.26013912 -8.46544016 26.25894764 -9.38437849 26.25772005 C-12.53841473 25.59245538 -13.73304872 24.19560317 -15.76696777 21.75517273 C-17.15639086 18.97632656 -17.04995034 16.60545257 -17.14196777 13.50517273 C-17.19095215 12.38626648 -17.23993652 11.26736023 -17.29040527 10.11454773 C-16.75361253 6.66945998 -15.89655995 4.64020793 -13.58152294 2.02313459 C-9.63393822 -0.73533038 -4.63163537 -0.05766286 0 0 Z "
     fill="#60439F"
     transform="translate(507.7669677734375,522.2448272705078)"
     id="path10" />
  <path
     d="M0 0 C1.20539224 -0.00865438 2.41078448 -0.01730876 3.65270376 -0.02622539 C6.99594499 -0.04408685 10.33715062 -0.03502011 13.68024707 -0.01451623 C17.2863462 0.00110899 20.89228653 -0.01780482 24.49836731 -0.03231812 C31.56145367 -0.05515559 38.62414455 -0.0456598 45.68722308 -0.02481725 C51.42698386 -0.00853954 57.16663664 -0.00433212 62.90641785 -0.00878334 C63.72302835 -0.00941402 64.53963885 -0.01004469 65.38099512 -0.01069448 C67.03987383 -0.01204052 68.6987525 -0.01342009 70.35763115 -0.01483283 C85.91652777 -0.02677261 101.47520747 -0.00269592 117.0340547 0.03418525 C130.38707849 0.06507867 143.73985251 0.06744965 157.09289551 0.04838562 C172.59571458 0.02627789 188.0983936 0.02012531 203.60121965 0.04070824 C205.25402862 0.0428712 206.9068376 0.0450203 208.55964661 0.04715538 C209.37288064 0.04822175 210.18611467 0.04928811 211.02399215 0.05038679 C216.75749093 0.05685888 222.4909177 0.05208757 228.22441101 0.04313087 C235.21078297 0.03259957 242.19686194 0.04008195 249.18317974 0.07058666 C252.74845276 0.0857246 256.31326314 0.09286751 259.87854958 0.07839584 C263.74133604 0.06299911 267.60333049 0.08626907 271.46606445 0.11352539 C272.59591939 0.1030539 273.72577434 0.09258241 274.88986731 0.08179361 C282.44169619 0.18148057 282.44169619 0.18148057 286.42696381 3.07066631 C288.81289658 6.61707229 288.90053508 9.00488736 288.85803223 13.25517273 C288.87092285 14.54423523 288.88381348 15.83329773 288.89709473 17.16142273 C288.03743269 21.81371138 287.06731099 22.97544885 283.23303223 25.75517273 C279.31623831 26.50798972 275.44430743 26.4336904 271.46606445 26.39682007 C269.65797609 26.40957835 269.65797609 26.40957835 267.81336069 26.42259437 C264.47036001 26.44102904 261.12875127 26.43702424 257.78581738 26.42345512 C254.17971825 26.41420572 250.57375789 26.43368705 246.96769714 26.44943237 C239.90467038 26.47553286 232.84189804 26.47442789 225.77884138 26.46339419 C220.03908553 26.45483929 214.29940334 26.45566374 208.55964661 26.46319008 C207.7430361 26.46424497 206.9264256 26.46529985 206.08506933 26.46638671 C204.42619063 26.46855761 202.76731196 26.47074439 201.10843331 26.47294686 C185.54957396 26.49238137 169.99085743 26.48037415 154.43200976 26.45816091 C141.07896111 26.4399082 127.72618892 26.45081524 114.37316895 26.48246765 C98.87035122 26.51921387 83.36770618 26.53625798 67.8648448 26.52305537 C66.21203584 26.52171426 64.55922686 26.52040528 62.90641785 26.5191288 C62.09318382 26.51849813 61.27994979 26.51786747 60.4420723 26.51721769 C54.70854682 26.51418825 48.97515142 26.52546031 43.24165344 26.54237938 C36.25526028 26.56268486 29.26925738 26.56186485 22.28288472 26.53374698 C18.71752585 26.51995524 15.1528487 26.51582993 11.58751488 26.53769684 C7.72464679 26.56107591 3.86285787 26.53807969 0 26.51034546 C-1.12985494 26.52441191 -2.25970988 26.53847836 -3.42380285 26.55297107 C-10.78482825 26.44602329 -10.78482825 26.44602329 -13.57657909 24.48226702 C-16.69962404 20.93328574 -17.44721791 17.89618433 -17.39196777 13.25517273 C-17.4048584 12.17236023 -17.41774902 11.08954773 -17.43103027 9.97392273 C-15.34529855 -0.13574162 -8.91023093 -0.11093045 0 0 Z "
     fill="#60439F"
     transform="translate(507.7669677734375,702.2448272705078)"
     id="path11" />
  <path
     d="M0 0 C1.55188716 -0.01059839 1.55188716 -0.01059839 3.13512558 -0.02141088 C4.27537927 -0.0189958 5.41563296 -0.01658071 6.5904398 -0.01409245 C7.79891231 -0.01932912 9.00738482 -0.0245658 10.25247771 -0.02996117 C13.61290979 -0.04239672 16.97313291 -0.04580394 20.3335737 -0.04536426 C23.95532775 -0.04700999 27.57704347 -0.06007179 31.1987772 -0.07155704 C39.12010253 -0.09442363 47.0414011 -0.10232918 54.96275496 -0.10738349 C59.90652062 -0.11063807 64.85027848 -0.11715903 69.79403973 -0.12438488 C83.47577604 -0.14395164 97.15750508 -0.16035585 110.83925629 -0.16326141 C111.71505761 -0.16344898 112.59085893 -0.16363655 113.49319968 -0.16382981 C115.26873434 -0.16419606 117.04426899 -0.16455976 118.81980365 -0.16492092 C120.14190903 -0.16519514 120.14190903 -0.16519514 121.49072361 -0.16547489 C122.81443795 -0.16574572 122.81443795 -0.16574572 124.16489399 -0.16602201 C138.47249155 -0.16956562 152.77993878 -0.19659931 167.08748417 -0.23397278 C181.76872766 -0.27201635 196.44989647 -0.29141859 211.13119036 -0.29172093 C219.37755887 -0.29230633 227.623748 -0.30085171 235.87007046 -0.32971859 C242.89014501 -0.35417958 249.90997474 -0.36155124 256.93008035 -0.34647106 C260.51347242 -0.3392807 264.09638055 -0.34024979 267.67971897 -0.36288166 C271.56041408 -0.38715742 275.44041152 -0.3728956 279.32115269 -0.35466862 C280.45917566 -0.36786858 281.59719863 -0.38106855 282.76970714 -0.39466852 C290.35520026 -0.31284108 290.35520026 -0.31284108 293.7172184 2.58754539 C295.36979172 5.97947604 295.55176034 8.49327789 295.51928806 12.26006222 C295.53475681 14.05443722 295.53475681 14.05443722 295.55053806 15.88506222 C294.93270686 19.8101075 293.77966504 21.45848559 291.01928806 24.26006222 C288.56147792 25.48896729 286.96051233 25.38873711 284.21126938 25.39428329 C283.18973587 25.39874114 282.16820237 25.40319898 281.1157133 25.40779191 C279.98490173 25.40760755 278.85409016 25.40742319 277.68901157 25.40723324 C276.49434971 25.41090993 275.29968785 25.41458661 274.06882411 25.41837472 C270.74232093 25.42751352 267.41586713 25.43211385 264.08935606 25.43476403 C260.50575053 25.4386627 256.92215935 25.4482413 253.33856297 25.45697689 C244.67930936 25.47675309 236.02005457 25.48680871 227.36078402 25.49570468 C223.28548797 25.50008546 219.21019321 25.50545279 215.13489819 25.51069355 C201.59217409 25.52770655 188.04945082 25.54220168 174.50671768 25.54944229 C170.99113241 25.55135226 167.47554714 25.55327258 163.95996189 25.55522823 C163.08615432 25.55571197 162.21234675 25.55619571 161.31206015 25.55669411 C147.15059852 25.56499798 132.98922126 25.59034056 118.82779648 25.62280891 C104.29687785 25.65585351 89.76600214 25.67388867 75.23504573 25.67708653 C67.07304836 25.67925398 58.91117404 25.68803693 50.74921322 25.71354771 C43.79944106 25.73521922 36.84982184 25.74332269 29.90001973 25.73358092 C26.35302511 25.72902591 22.80634627 25.73099151 19.25939465 25.75034237 C15.41630262 25.77112813 11.57364924 25.76102187 7.73051548 25.74780941 C6.60639608 25.75877866 5.48227667 25.7697479 4.32409304 25.78104955 C-3.19250799 25.71838989 -3.19250799 25.71838989 -7.15016365 23.41707802 C-10.15595951 19.87521615 -10.14048022 16.80955332 -10.16821194 12.32256222 C-10.18239162 11.28228878 -10.19657131 10.24201534 -10.21118069 9.17021847 C-9.97994212 6.25034159 -9.60353422 4.67003418 -7.98071194 2.26006222 C-4.71073731 0.08007913 -3.78578498 0.00824424 0 0 Z "
     fill="#6043A0"
     transform="translate(500.9807119369507,462.7399377822876)"
     id="path12" />
  <path
     d="M0 0 C1.20539224 -0.00865438 2.41078448 -0.01730876 3.65270376 -0.02622539 C6.99594499 -0.04408685 10.33715062 -0.03502011 13.68024707 -0.01451623 C17.2863462 0.00110899 20.89228653 -0.01780482 24.49836731 -0.03231812 C31.56145367 -0.05515559 38.62414455 -0.0456598 45.68722308 -0.02481725 C51.42698386 -0.00853954 57.16663664 -0.00433212 62.90641785 -0.00878334 C63.72302835 -0.00941402 64.53963885 -0.01004469 65.38099512 -0.01069448 C67.03987383 -0.01204052 68.6987525 -0.01342009 70.35763115 -0.01483283 C85.91652777 -0.02677261 101.47520747 -0.00269592 117.0340547 0.03418525 C130.38707849 0.06507867 143.73985251 0.06744965 157.09289551 0.04838562 C172.59571458 0.02627789 188.0983936 0.02012531 203.60121965 0.04070824 C205.25402862 0.0428712 206.9068376 0.0450203 208.55964661 0.04715538 C209.37288064 0.04822175 210.18611467 0.04928811 211.02399215 0.05038679 C216.75749093 0.05685888 222.4909177 0.05208757 228.22441101 0.04313087 C235.21078297 0.03259957 242.19686194 0.04008195 249.18317974 0.07058666 C252.74845276 0.0857246 256.31326314 0.09286751 259.87854958 0.07839584 C263.74133604 0.06299911 267.60333049 0.08626907 271.46606445 0.11352539 C272.59591939 0.1030539 273.72577434 0.09258241 274.88986731 0.08179361 C282.44587572 0.18153574 282.44587572 0.18153574 286.42916107 3.08433819 C288.73776834 6.50249143 288.87066679 8.65370941 288.79553223 12.75517273 C288.79682129 13.95142273 288.79811035 15.14767273 288.79943848 16.38017273 C288.14399159 20.28573212 286.98266634 21.95928309 284.23303223 24.75517273 C281.77522208 25.9840778 280.1742565 25.88384763 277.42501354 25.88939381 C276.40348004 25.89385165 275.38194653 25.89830949 274.32945746 25.90290242 C273.19864589 25.90271806 272.06783432 25.9025337 270.90275574 25.90234375 C269.70809388 25.90602044 268.51343201 25.90969713 267.28256828 25.91348523 C263.95606509 25.92262403 260.62961129 25.92722437 257.30310023 25.92987454 C253.7194947 25.93377322 250.13590352 25.94335181 246.55230713 25.9520874 C237.89305353 25.9718636 229.23379873 25.98191923 220.57452819 25.99081519 C216.49923213 25.99519597 212.42393738 26.0005633 208.34864235 26.00580406 C194.80591826 26.02281706 181.26319498 26.03731219 167.72046185 26.0445528 C164.20487657 26.04646277 160.6892913 26.0483831 157.17370605 26.05033875 C156.29989848 26.05082249 155.42609091 26.05130623 154.52580432 26.05180462 C140.36434268 26.06010849 126.20296542 26.08545107 112.04154065 26.11791942 C97.51062202 26.15096403 82.97974631 26.16899918 68.44878989 26.17219704 C60.28679252 26.1743645 52.1249182 26.18314745 43.96295738 26.20865822 C37.01318523 26.23032973 30.063566 26.2384332 23.11376389 26.22869144 C19.56676927 26.22413642 16.02009043 26.22610202 12.47313881 26.24545288 C8.63004678 26.26623864 4.78739341 26.25613238 0.94425964 26.24291992 C-0.17985976 26.25388917 -1.30397916 26.26485841 -2.46216279 26.27616006 C-9.97876383 26.2135004 -9.97876383 26.2135004 -13.93641949 23.91218853 C-16.86694225 20.45902428 -16.99840258 17.33245458 -17.14196777 12.94267273 C-17.19095215 11.92560242 -17.23993652 10.9085321 -17.29040527 9.86064148 C-16.73559306 6.56903168 -15.79249269 4.54254761 -13.58152294 2.03206098 C-9.64064871 -0.74110133 -4.63277861 -0.05767709 0 0 Z "
     fill="#60439F"
     transform="translate(507.7669677734375,582.2448272705078)"
     id="path13" />
  <path
     d="M0 0 C1.54275045 -0.00761181 1.54275045 -0.00761181 3.11666757 -0.0153774 C4.82455777 -0.01612404 4.82455777 -0.01612404 6.5669508 -0.01688576 C8.37119425 -0.02345914 8.37119425 -0.02345914 10.21188706 -0.03016531 C13.5611913 -0.04124728 16.91044871 -0.04778312 20.25976455 -0.05234647 C23.86791201 -0.05829614 27.47604217 -0.06990749 31.08417797 -0.08063698 C39.80275343 -0.1051744 48.52133462 -0.11978949 57.239934 -0.13269705 C59.70137596 -0.13640781 62.16281736 -0.14038113 64.62425876 -0.14444971 C79.9013734 -0.16968352 95.17848892 -0.191742 110.45561981 -0.20417786 C113.99526822 -0.20710767 117.5349166 -0.21006932 121.07456493 -0.21308327 C122.39424814 -0.21420234 122.39424814 -0.21420234 123.74059161 -0.21534403 C137.99907166 -0.22800312 152.25742717 -0.26123291 166.51584897 -0.3028851 C181.14620783 -0.3452744 195.77650287 -0.36886935 210.406923 -0.37409842 C218.62484353 -0.37751581 226.84256938 -0.38930952 235.06042957 -0.42220116 C242.05779889 -0.45016156 249.05493364 -0.46121873 256.05235449 -0.4500057 C259.62372022 -0.44480875 263.19459442 -0.44777178 266.76588917 -0.47247124 C270.6353246 -0.49900975 274.50408508 -0.48693851 278.37359142 -0.47098732 C279.50549272 -0.48486941 280.63739402 -0.49875149 281.80359536 -0.51305425 C289.37365803 -0.43582909 289.37365803 -0.43582909 293.35813713 2.464077 C295.66423629 5.8835968 295.79837866 8.03568657 295.72324657 12.13701439 C295.72453564 13.33326439 295.7258247 14.52951439 295.72715282 15.76201439 C295.06519491 19.70637051 294.02903415 21.38507711 291.16074657 24.13701439 C288.13795031 25.17154873 285.31609098 25.26477407 282.13786697 25.27123547 C280.61004376 25.27792223 280.61004376 25.27792223 279.05135542 25.28474408 C277.93415143 25.28455972 276.81694744 25.28437536 275.66588879 25.28418541 C273.88358338 25.28970044 273.88358338 25.28970044 272.06527179 25.29532689 C268.76609035 25.30444551 265.46695862 25.30906158 262.16776931 25.3117162 C258.61010236 25.31562285 255.05244976 25.32520068 251.49479198 25.33392906 C242.90459831 25.35367936 234.31440347 25.36375614 225.72419277 25.37265685 C221.67978314 25.37704057 217.63537482 25.38240702 213.59096622 25.38764572 C200.14938567 25.40465368 186.70780594 25.41914958 173.26621628 25.42639446 C169.7791554 25.42830436 166.29209453 25.4302247 162.80503368 25.4321804 C161.50499067 25.43290601 161.50499067 25.43290601 160.17868417 25.43364628 C146.12728035 25.44195317 132.07596148 25.46730309 118.02459479 25.49976108 C103.60209403 25.53280527 89.17963649 25.55084067 74.75709766 25.5540387 C66.65772794 25.55620584 58.55848223 25.56498463 50.45914936 25.59049988 C43.56432206 25.61217054 36.66964892 25.62027516 29.77479143 25.6105331 C26.25613567 25.60597827 22.73779824 25.60794273 19.21918583 25.62729454 C15.4068532 25.64808116 11.59496272 25.63797381 7.78258801 25.62476158 C6.66761474 25.63573083 5.55264147 25.64670007 4.40388113 25.65800172 C-3.05243293 25.59534548 -3.05243293 25.59534548 -7.00311852 23.29403019 C-9.98639994 19.78939383 -10.02266485 16.71235076 -10.08925343 12.26201439 C-10.1279253 10.71900658 -10.1279253 10.71900658 -10.16737843 9.14482689 C-9.7942854 5.72480751 -8.86952849 3.88675586 -6.83925343 1.13701439 C-4.37454658 -0.09533903 -2.75740458 0.00719922 0 0 Z "
     fill="#60439F"
     transform="translate(500.83925342559814,402.8629856109619)"
     id="path14" />
  <path
     d="M0 0 C5.10384872 4.27409398 9.88895084 8.74529203 14.58764648 13.45825195 C15.31043289 14.17928604 16.0332193 14.90032013 16.77790833 15.64320374 C19.14480999 18.00573559 21.50807269 20.37186847 23.87109375 22.73828125 C25.52004122 24.38655472 27.16913708 26.03467975 28.81837463 27.68266296 C32.26197297 31.12479132 35.70376644 34.56871151 39.14428711 38.01391602 C43.56523246 42.4405852 47.99068798 46.86271405 52.41747952 51.28353596 C55.81717666 54.67963151 59.21450327 58.07809035 62.61110115 61.47728539 C64.24313921 63.10999244 65.87592569 64.74195172 67.50945854 66.37316322 C69.78143128 68.64261316 72.0502024 70.91521463 74.31811523 73.1887207 C74.99907257 73.86765381 75.68002991 74.54658691 76.38162231 75.24609375 C81 79.88573241 81 79.88573241 81 81 C72.36795 81.06961416 63.73599715 81.12286902 55.10372734 81.15543652 C51.09509211 81.17106997 47.08664943 81.19226548 43.078125 81.22631836 C39.20721681 81.25899512 35.33649343 81.27687047 31.46545792 81.28463173 C29.99111142 81.29016037 28.51677466 81.30095651 27.04250717 81.31719017 C24.97196614 81.33907587 22.90218169 81.34196241 20.83154297 81.34057617 C19.06615677 81.35056892 19.06615677 81.35056892 17.2651062 81.36076355 C12.01952981 80.78117666 8.09488137 78.68664167 4.75 74.625 C4.03070312 73.77808594 4.03070312 73.77808594 3.296875 72.9140625 C0.30240441 68.49451253 -0.24725193 64.65637914 -0.22705078 59.3737793 C-0.22734283 58.72931351 -0.22763489 58.08484772 -0.22793579 57.42085266 C-0.22655005 55.30516779 -0.21102507 53.18984158 -0.1953125 51.07421875 C-0.19157967 49.60163058 -0.18873397 48.12903991 -0.18673706 46.65644836 C-0.17912183 42.79142328 -0.15949163 38.92654987 -0.1373291 35.06158447 C-0.11682508 31.11334281 -0.10772562 27.1650765 -0.09765625 23.21679688 C-0.0762436 15.47779563 -0.04213333 7.73891912 0 0 Z "
     fill="#6144A0"
     transform="translate(756,239)"
     id="path15" />
</svg>
